<mxfile host="Electron" agent="Mozilla/5.0 (Macintosh; Intel Mac OS X 10_15_7) AppleWebKit/537.36 (KHTML, like Gecko) draw.io/24.7.8 Chrome/128.0.6613.36 Electron/32.0.1 Safari/537.36" version="24.7.8" pages="4">
  <diagram id="7uuvqDomjlQr13WNTYXz" name="main">
    <mxGraphModel dx="920" dy="486" grid="1" gridSize="10" guides="1" tooltips="1" connect="1" arrows="1" fold="1" page="1" pageScale="1" pageWidth="1100" pageHeight="850" math="0" shadow="0">
      <root>
        <mxCell id="0" />
        <mxCell id="1" parent="0" />
        <mxCell id="LZAMivedhxL1cJnxeGQ6-1" value="" style="rhombus;whiteSpace=wrap;html=1;rounded=1;fontStyle=1;glass=0;sketch=0;fontSize=12;points=[[0,0.5,0,0,0],[0.5,0,0,0,0],[0.5,1,0,0,0],[1,0.5,0,0,0]];shadow=1;fontFamily=Helvetica;fontColor=default;" parent="1" vertex="1">
          <mxGeometry x="20" y="140" width="40" height="40" as="geometry" />
        </mxCell>
        <mxCell id="LZAMivedhxL1cJnxeGQ6-2" value="" style="rhombus;whiteSpace=wrap;html=1;rounded=1;fontStyle=1;glass=0;sketch=0;fontSize=12;points=[[0,0.5,0,0,0],[0.5,0,0,0,0],[0.5,1,0,0,0],[1,0.5,0,0,0]];shadow=1;fillColor=#0050ef;fontColor=#ffffff;strokeColor=#001DBC;fontFamily=Helvetica;" parent="1" vertex="1">
          <mxGeometry x="1000" y="140" width="40" height="40" as="geometry" />
        </mxCell>
        <mxCell id="LZAMivedhxL1cJnxeGQ6-3" value="✗" style="rhombus;whiteSpace=wrap;html=1;rounded=1;fillColor=#0050ef;fontColor=#ffffff;strokeColor=#001DBC;fontStyle=1;glass=0;sketch=0;fontSize=12;points=[[0,0.5,0,0,0],[0.5,0,0,0,0],[0.5,1,0,0,0],[1,0.5,0,0,0]];shadow=1;textOpacity=30;" parent="1" vertex="1">
          <mxGeometry x="1000" y="260" width="40" height="40" as="geometry" />
        </mxCell>
        <mxCell id="LZAMivedhxL1cJnxeGQ6-4" value="Read Text File" style="rounded=1;whiteSpace=wrap;html=1;sketch=0;container=1;recursiveResize=0;verticalAlign=top;arcSize=6;fontStyle=1;autosize=0;points=[];absoluteArcSize=1;shadow=1;strokeColor=#001DBC;fillColor=#0050ef;fontColor=#ffffff;fontFamily=Helvetica;fontSize=11;" parent="1" vertex="1">
          <mxGeometry x="130" y="120" width="130" height="110" as="geometry">
            <mxRectangle x="-98" y="-1230" width="99" height="26" as="alternateBounds" />
          </mxGeometry>
        </mxCell>
        <mxCell id="LZAMivedhxL1cJnxeGQ6-5" value="" style="rounded=1;whiteSpace=wrap;html=1;sketch=0;points=[[0,0.5,0,0,0],[1,0.5,0,0,0]];arcSize=50;fontFamily=Helvetica;fontSize=11;fontColor=default;" parent="LZAMivedhxL1cJnxeGQ6-4" vertex="1">
          <mxGeometry x="-10" y="27.5" width="39.25" height="25" as="geometry" />
        </mxCell>
        <mxCell id="LZAMivedhxL1cJnxeGQ6-6" value="" style="rounded=1;whiteSpace=wrap;html=1;sketch=0;points=[[0,0.5,0,0,0],[1,0.5,0,0,0]];fillColor=#1ba1e2;fontColor=#ffffff;strokeColor=#006EAF;arcSize=50;fontFamily=Helvetica;fontSize=11;" parent="LZAMivedhxL1cJnxeGQ6-4" vertex="1">
          <mxGeometry x="110" y="27.5" width="35.25" height="25" as="geometry" />
        </mxCell>
        <mxCell id="LZAMivedhxL1cJnxeGQ6-7" value="✗" style="rounded=1;whiteSpace=wrap;html=1;sketch=0;points=[[0,0.5,0,0,0],[1,0.5,0,0,0]];fillColor=#1ba1e2;fontColor=#ffffff;strokeColor=#006EAF;arcSize=50;fontFamily=Helvetica;fontSize=11;textOpacity=30;" parent="LZAMivedhxL1cJnxeGQ6-4" vertex="1">
          <mxGeometry x="110" y="67.5" width="35.25" height="25" as="geometry" />
        </mxCell>
        <mxCell id="LZAMivedhxL1cJnxeGQ6-8" style="edgeStyle=orthogonalEdgeStyle;rounded=0;orthogonalLoop=1;jettySize=auto;html=1;exitX=1;exitY=0.5;exitDx=0;exitDy=0;exitPerimeter=0;entryX=0;entryY=0.5;entryDx=0;entryDy=0;entryPerimeter=0;strokeWidth=2;" parent="1" source="LZAMivedhxL1cJnxeGQ6-1" target="LZAMivedhxL1cJnxeGQ6-5" edge="1">
          <mxGeometry relative="1" as="geometry" />
        </mxCell>
        <mxCell id="LZAMivedhxL1cJnxeGQ6-9" style="edgeStyle=orthogonalEdgeStyle;rounded=0;orthogonalLoop=1;jettySize=auto;html=1;exitX=1;exitY=0.5;exitDx=0;exitDy=0;exitPerimeter=0;strokeWidth=2;entryX=0;entryY=0.5;entryDx=0;entryDy=0;entryPerimeter=0;" parent="1" source="LZAMivedhxL1cJnxeGQ6-6" target="LZAMivedhxL1cJnxeGQ6-16" edge="1">
          <mxGeometry relative="1" as="geometry">
            <mxPoint x="323.25" y="160" as="targetPoint" />
          </mxGeometry>
        </mxCell>
        <mxCell id="LZAMivedhxL1cJnxeGQ6-10" style="edgeStyle=orthogonalEdgeStyle;rounded=1;orthogonalLoop=1;jettySize=auto;html=1;exitX=1;exitY=0.5;exitDx=0;exitDy=0;exitPerimeter=0;entryX=0;entryY=0.5;entryDx=0;entryDy=0;entryPerimeter=0;curved=0;dashed=1;dashPattern=1 4;" parent="1" source="LZAMivedhxL1cJnxeGQ6-7" target="LZAMivedhxL1cJnxeGQ6-3" edge="1">
          <mxGeometry relative="1" as="geometry">
            <Array as="points">
              <mxPoint x="300" y="200" />
              <mxPoint x="300" y="280" />
            </Array>
          </mxGeometry>
        </mxCell>
        <mxCell id="LZAMivedhxL1cJnxeGQ6-15" value="Internalize" style="rounded=1;whiteSpace=wrap;sketch=0;container=1;recursiveResize=0;verticalAlign=top;arcSize=6;fontStyle=1;autosize=0;points=[];absoluteArcSize=1;shadow=1;strokeColor=#001DBC;fillColor=#0050ef;fontColor=#ffffff;fontFamily=Helvetica;fontSize=11;labelBackgroundColor=none;" parent="1" vertex="1">
          <mxGeometry x="360" y="120" width="130" height="120" as="geometry">
            <mxRectangle x="-98" y="-1230" width="99" height="26" as="alternateBounds" />
          </mxGeometry>
        </mxCell>
        <mxCell id="LZAMivedhxL1cJnxeGQ6-16" value="" style="rounded=1;whiteSpace=wrap;sketch=0;points=[[0,0.5,0,0,0],[1,0.5,0,0,0]];arcSize=50;fontFamily=Helvetica;fontSize=11;fontColor=default;labelBackgroundColor=none;" parent="LZAMivedhxL1cJnxeGQ6-15" vertex="1">
          <mxGeometry x="-10" y="27.5" width="39.25" height="25" as="geometry" />
        </mxCell>
        <mxCell id="LZAMivedhxL1cJnxeGQ6-17" value="" style="rounded=1;whiteSpace=wrap;sketch=0;points=[[0,0.5,0,0,0],[1,0.5,0,0,0]];fillColor=#1ba1e2;fontColor=#ffffff;strokeColor=#006EAF;arcSize=50;fontFamily=Helvetica;fontSize=11;labelBackgroundColor=none;" parent="LZAMivedhxL1cJnxeGQ6-15" vertex="1">
          <mxGeometry x="110" y="27.5" width="35.25" height="25" as="geometry" />
        </mxCell>
        <mxCell id="LZAMivedhxL1cJnxeGQ6-18" value="✗" style="rounded=1;whiteSpace=wrap;sketch=0;points=[[0,0.5,0,0,0],[1,0.5,0,0,0]];fillColor=#1ba1e2;fontColor=#ffffff;strokeColor=#006EAF;arcSize=50;fontFamily=Helvetica;fontSize=11;textOpacity=30;labelBackgroundColor=none;" parent="LZAMivedhxL1cJnxeGQ6-15" vertex="1">
          <mxGeometry x="110" y="67.5" width="35.25" height="25" as="geometry" />
        </mxCell>
        <mxCell id="LZAMivedhxL1cJnxeGQ6-29" style="edgeStyle=orthogonalEdgeStyle;curved=0;rounded=1;orthogonalLoop=1;jettySize=auto;html=1;exitX=1;exitY=0.5;exitDx=0;exitDy=0;exitPerimeter=0;strokeColor=default;align=center;verticalAlign=middle;fontFamily=Helvetica;fontSize=11;fontColor=default;labelBackgroundColor=default;endArrow=classic;entryX=0;entryY=0.5;entryDx=0;entryDy=0;entryPerimeter=0;dashed=1;dashPattern=1 4;" parent="1" source="LZAMivedhxL1cJnxeGQ6-18" target="LZAMivedhxL1cJnxeGQ6-3" edge="1">
          <mxGeometry relative="1" as="geometry">
            <Array as="points">
              <mxPoint x="540" y="200" />
              <mxPoint x="540" y="280" />
            </Array>
          </mxGeometry>
        </mxCell>
        <mxCell id="LZAMivedhxL1cJnxeGQ6-32" value="Decode For Python" style="rounded=1;whiteSpace=wrap;sketch=0;container=1;recursiveResize=0;verticalAlign=top;arcSize=6;fontStyle=1;autosize=0;points=[];absoluteArcSize=1;shadow=1;strokeColor=#001DBC;fillColor=#0050ef;fontColor=#ffffff;fontFamily=Helvetica;fontSize=11;labelBackgroundColor=none;" parent="1" vertex="1">
          <mxGeometry x="580" y="120" width="130" height="110" as="geometry">
            <mxRectangle x="-98" y="-1230" width="99" height="26" as="alternateBounds" />
          </mxGeometry>
        </mxCell>
        <mxCell id="LZAMivedhxL1cJnxeGQ6-33" value="" style="rounded=1;whiteSpace=wrap;sketch=0;points=[[0,0.5,0,0,0],[1,0.5,0,0,0]];arcSize=50;fontFamily=Helvetica;fontSize=11;fontColor=default;labelBackgroundColor=none;" parent="LZAMivedhxL1cJnxeGQ6-32" vertex="1">
          <mxGeometry x="-10" y="27.5" width="39.25" height="25" as="geometry" />
        </mxCell>
        <mxCell id="LZAMivedhxL1cJnxeGQ6-34" value="" style="rounded=1;whiteSpace=wrap;sketch=0;points=[[0,0.5,0,0,0],[1,0.5,0,0,0]];fillColor=#1ba1e2;fontColor=#ffffff;strokeColor=#006EAF;arcSize=50;fontFamily=Helvetica;fontSize=11;labelBackgroundColor=none;" parent="LZAMivedhxL1cJnxeGQ6-32" vertex="1">
          <mxGeometry x="110" y="27.5" width="35.25" height="25" as="geometry" />
        </mxCell>
        <mxCell id="LZAMivedhxL1cJnxeGQ6-35" value="✗" style="rounded=1;whiteSpace=wrap;sketch=0;points=[[0,0.5,0,0,0],[1,0.5,0,0,0]];fillColor=#1ba1e2;fontColor=#ffffff;strokeColor=#006EAF;arcSize=50;fontFamily=Helvetica;fontSize=11;textOpacity=30;labelBackgroundColor=none;" parent="LZAMivedhxL1cJnxeGQ6-32" vertex="1">
          <mxGeometry x="110" y="67.5" width="35.25" height="25" as="geometry" />
        </mxCell>
        <mxCell id="LZAMivedhxL1cJnxeGQ6-43" style="edgeStyle=orthogonalEdgeStyle;rounded=1;orthogonalLoop=1;jettySize=auto;html=1;exitX=1;exitY=0.5;exitDx=0;exitDy=0;exitPerimeter=0;entryX=0;entryY=0.5;entryDx=0;entryDy=0;entryPerimeter=0;curved=0;dashed=1;dashPattern=1 4;" parent="1" source="LZAMivedhxL1cJnxeGQ6-35" target="LZAMivedhxL1cJnxeGQ6-3" edge="1">
          <mxGeometry relative="1" as="geometry">
            <Array as="points">
              <mxPoint x="770" y="200" />
              <mxPoint x="770" y="280" />
            </Array>
          </mxGeometry>
        </mxCell>
        <mxCell id="LZAMivedhxL1cJnxeGQ6-46" style="edgeStyle=orthogonalEdgeStyle;rounded=1;orthogonalLoop=1;jettySize=auto;html=1;exitX=1;exitY=0.5;exitDx=0;exitDy=0;exitPerimeter=0;entryX=0;entryY=0.5;entryDx=0;entryDy=0;entryPerimeter=0;curved=0;strokeWidth=2;" parent="1" source="LZAMivedhxL1cJnxeGQ6-17" target="LZAMivedhxL1cJnxeGQ6-33" edge="1">
          <mxGeometry relative="1" as="geometry" />
        </mxCell>
        <mxCell id="aPPb3cxEFPqPnmH_zs7w-1" value="?A" style="rounded=1;whiteSpace=wrap;html=1;sketch=0;container=1;recursiveResize=0;verticalAlign=bottom;arcSize=6;fontStyle=0;autosize=0;points=[];absoluteArcSize=1;shadow=0;strokeColor=#d79b00;fillColor=#FFFFFF;fontFamily=Helvetica;fontSize=11;dashed=1;opacity=30;align=right;textOpacity=30;gradientColor=#EA6B66;fontColor=default;" vertex="1" parent="1">
          <mxGeometry x="600" y="30" width="40" height="50" as="geometry">
            <mxRectangle x="-98" y="-1230" width="99" height="26" as="alternateBounds" />
          </mxGeometry>
        </mxCell>
        <mxCell id="aPPb3cxEFPqPnmH_zs7w-2" value="" style="rounded=1;whiteSpace=wrap;html=1;sketch=0;points=[[0,0.5,0,0,0],[1,0.5,0,0,0]];arcSize=50;fontFamily=Helvetica;fontSize=11;fontColor=default;dashed=1;textOpacity=50;opacity=30;fontStyle=0" vertex="1" parent="aPPb3cxEFPqPnmH_zs7w-1">
          <mxGeometry x="-12" y="12.5" width="39.25" height="25" as="geometry" />
        </mxCell>
        <mxCell id="aPPb3cxEFPqPnmH_zs7w-3" style="edgeStyle=orthogonalEdgeStyle;rounded=1;orthogonalLoop=1;jettySize=auto;html=1;exitX=1;exitY=0.5;exitDx=0;exitDy=0;exitPerimeter=0;entryX=0;entryY=0.5;entryDx=0;entryDy=0;entryPerimeter=0;curved=0;dashed=1;dashPattern=1 4;" edge="1" parent="1" source="LZAMivedhxL1cJnxeGQ6-17" target="aPPb3cxEFPqPnmH_zs7w-2">
          <mxGeometry relative="1" as="geometry">
            <mxPoint x="520" y="50" as="targetPoint" />
          </mxGeometry>
        </mxCell>
        <mxCell id="aPPb3cxEFPqPnmH_zs7w-4" value="Uninternalize" style="rounded=1;whiteSpace=wrap;sketch=0;container=1;recursiveResize=0;verticalAlign=top;arcSize=6;fontStyle=1;autosize=0;points=[];absoluteArcSize=1;shadow=1;strokeColor=#001DBC;fillColor=#0050ef;fontColor=#ffffff;fontFamily=Helvetica;fontSize=11;labelBackgroundColor=none;" vertex="1" parent="1">
          <mxGeometry x="800" y="120" width="130" height="110" as="geometry">
            <mxRectangle x="-98" y="-1230" width="99" height="26" as="alternateBounds" />
          </mxGeometry>
        </mxCell>
        <mxCell id="aPPb3cxEFPqPnmH_zs7w-5" value="" style="rounded=1;whiteSpace=wrap;sketch=0;points=[[0,0.5,0,0,0],[1,0.5,0,0,0]];arcSize=50;fontFamily=Helvetica;fontSize=11;fontColor=default;labelBackgroundColor=none;" vertex="1" parent="aPPb3cxEFPqPnmH_zs7w-4">
          <mxGeometry x="-10" y="27.5" width="39.25" height="25" as="geometry" />
        </mxCell>
        <mxCell id="aPPb3cxEFPqPnmH_zs7w-6" value="" style="rounded=1;whiteSpace=wrap;sketch=0;points=[[0,0.5,0,0,0],[1,0.5,0,0,0]];fillColor=#1ba1e2;fontColor=#ffffff;strokeColor=#006EAF;arcSize=50;fontFamily=Helvetica;fontSize=11;labelBackgroundColor=none;" vertex="1" parent="aPPb3cxEFPqPnmH_zs7w-4">
          <mxGeometry x="110" y="27.5" width="35.25" height="25" as="geometry" />
        </mxCell>
        <mxCell id="aPPb3cxEFPqPnmH_zs7w-7" value="✗" style="rounded=1;whiteSpace=wrap;sketch=0;points=[[0,0.5,0,0,0],[1,0.5,0,0,0]];fillColor=#1ba1e2;fontColor=#ffffff;strokeColor=#006EAF;arcSize=50;fontFamily=Helvetica;fontSize=11;textOpacity=30;labelBackgroundColor=none;" vertex="1" parent="aPPb3cxEFPqPnmH_zs7w-4">
          <mxGeometry x="110" y="67.5" width="35.25" height="25" as="geometry" />
        </mxCell>
        <mxCell id="aPPb3cxEFPqPnmH_zs7w-8" style="edgeStyle=orthogonalEdgeStyle;rounded=1;orthogonalLoop=1;jettySize=auto;html=1;exitX=1;exitY=0.5;exitDx=0;exitDy=0;exitPerimeter=0;entryX=0;entryY=0.5;entryDx=0;entryDy=0;entryPerimeter=0;curved=0;strokeWidth=2;" edge="1" parent="1" source="LZAMivedhxL1cJnxeGQ6-34" target="aPPb3cxEFPqPnmH_zs7w-5">
          <mxGeometry relative="1" as="geometry" />
        </mxCell>
        <mxCell id="aPPb3cxEFPqPnmH_zs7w-9" style="edgeStyle=orthogonalEdgeStyle;rounded=1;orthogonalLoop=1;jettySize=auto;html=1;exitX=1;exitY=0.5;exitDx=0;exitDy=0;exitPerimeter=0;curved=0;strokeWidth=2;" edge="1" parent="1" source="aPPb3cxEFPqPnmH_zs7w-6" target="LZAMivedhxL1cJnxeGQ6-2">
          <mxGeometry relative="1" as="geometry" />
        </mxCell>
        <mxCell id="aPPb3cxEFPqPnmH_zs7w-10" style="edgeStyle=orthogonalEdgeStyle;rounded=1;orthogonalLoop=1;jettySize=auto;html=1;exitX=1;exitY=0.5;exitDx=0;exitDy=0;exitPerimeter=0;entryX=0;entryY=0.5;entryDx=0;entryDy=0;entryPerimeter=0;curved=0;dashed=1;dashPattern=1 4;" edge="1" parent="1" source="aPPb3cxEFPqPnmH_zs7w-7" target="LZAMivedhxL1cJnxeGQ6-3">
          <mxGeometry relative="1" as="geometry" />
        </mxCell>
      </root>
    </mxGraphModel>
  </diagram>
  <diagram id="kfDFgN6jVAJmqFf7D7LI" name="Internalize">
    <mxGraphModel dx="920" dy="486" grid="1" gridSize="10" guides="1" tooltips="1" connect="1" arrows="1" fold="1" page="1" pageScale="1" pageWidth="1100" pageHeight="850" math="0" shadow="0">
      <root>
        <mxCell id="0" />
        <mxCell id="1" parent="0" />
        <mxCell id="Ks3u7ii3O0ToyFJfyuOW-1" value="" style="rhombus;whiteSpace=wrap;html=1;rounded=1;fontStyle=1;glass=0;sketch=0;fontSize=12;points=[[0,0.5,0,0,0],[0.5,0,0,0,0],[0.5,1,0,0,0],[1,0.5,0,0,0]];shadow=1;fontFamily=Helvetica;fontColor=default;" parent="1" vertex="1">
          <mxGeometry x="20" y="140" width="40" height="40" as="geometry" />
        </mxCell>
        <mxCell id="Ks3u7ii3O0ToyFJfyuOW-2" value="" style="rhombus;whiteSpace=wrap;html=1;rounded=1;fontStyle=1;glass=0;sketch=0;fontSize=12;points=[[0,0.5,0,0,0],[0.5,0,0,0,0],[0.5,1,0,0,0],[1,0.5,0,0,0]];shadow=1;fillColor=#0050ef;fontColor=#ffffff;strokeColor=#001DBC;fontFamily=Helvetica;" parent="1" vertex="1">
          <mxGeometry x="440" y="140" width="40" height="40" as="geometry" />
        </mxCell>
        <mxCell id="Ks3u7ii3O0ToyFJfyuOW-3" value="✗" style="rhombus;whiteSpace=wrap;html=1;rounded=1;fillColor=#0050ef;fontColor=#ffffff;strokeColor=#001DBC;fontStyle=1;glass=0;sketch=0;fontSize=12;points=[[0,0.5,0,0,0],[0.5,0,0,0,0],[0.5,1,0,0,0],[1,0.5,0,0,0]];shadow=1;textOpacity=30;" parent="1" vertex="1">
          <mxGeometry x="440" y="260" width="40" height="40" as="geometry" />
        </mxCell>
        <mxCell id="Ks3u7ii3O0ToyFJfyuOW-4" value="$ node t2t.mjs internalize.ohm internalize.rewrite -" style="rounded=1;whiteSpace=wrap;html=1;sketch=0;container=1;recursiveResize=0;verticalAlign=top;arcSize=6;fontStyle=1;autosize=0;points=[];absoluteArcSize=1;shadow=1;strokeColor=#001DBC;fillColor=#0050ef;fontColor=#ffffff;fontFamily=Helvetica;fontSize=11;" parent="1" vertex="1">
          <mxGeometry x="130" y="120" width="190" height="110" as="geometry">
            <mxRectangle x="-98" y="-1230" width="99" height="26" as="alternateBounds" />
          </mxGeometry>
        </mxCell>
        <mxCell id="Ks3u7ii3O0ToyFJfyuOW-5" value="" style="rounded=1;whiteSpace=wrap;html=1;sketch=0;points=[[0,0.5,0,0,0],[1,0.5,0,0,0]];arcSize=50;fontFamily=Helvetica;fontSize=11;fontColor=default;" parent="Ks3u7ii3O0ToyFJfyuOW-4" vertex="1">
          <mxGeometry x="-10" y="27.5" width="39.25" height="25" as="geometry" />
        </mxCell>
        <mxCell id="Ks3u7ii3O0ToyFJfyuOW-6" value="" style="rounded=1;whiteSpace=wrap;html=1;sketch=0;points=[[0,0.5,0,0,0],[1,0.5,0,0,0]];fillColor=#1ba1e2;fontColor=#ffffff;strokeColor=#006EAF;arcSize=50;fontFamily=Helvetica;fontSize=11;" parent="Ks3u7ii3O0ToyFJfyuOW-4" vertex="1">
          <mxGeometry x="170" y="27.5" width="35.25" height="25" as="geometry" />
        </mxCell>
        <mxCell id="Ks3u7ii3O0ToyFJfyuOW-7" value="✗" style="rounded=1;whiteSpace=wrap;html=1;sketch=0;points=[[0,0.5,0,0,0],[1,0.5,0,0,0]];fillColor=#1ba1e2;fontColor=#ffffff;strokeColor=#006EAF;arcSize=50;fontFamily=Helvetica;fontSize=11;textOpacity=30;" parent="Ks3u7ii3O0ToyFJfyuOW-4" vertex="1">
          <mxGeometry x="170" y="67.5" width="35.25" height="25" as="geometry" />
        </mxCell>
        <mxCell id="Ks3u7ii3O0ToyFJfyuOW-8" style="edgeStyle=orthogonalEdgeStyle;rounded=0;orthogonalLoop=1;jettySize=auto;html=1;exitX=1;exitY=0.5;exitDx=0;exitDy=0;exitPerimeter=0;entryX=0;entryY=0.5;entryDx=0;entryDy=0;entryPerimeter=0;strokeWidth=2;" parent="1" source="Ks3u7ii3O0ToyFJfyuOW-1" target="Ks3u7ii3O0ToyFJfyuOW-5" edge="1">
          <mxGeometry relative="1" as="geometry" />
        </mxCell>
        <mxCell id="Ks3u7ii3O0ToyFJfyuOW-9" style="edgeStyle=orthogonalEdgeStyle;rounded=0;orthogonalLoop=1;jettySize=auto;html=1;exitX=1;exitY=0.5;exitDx=0;exitDy=0;exitPerimeter=0;strokeWidth=2;entryX=0;entryY=0.5;entryDx=0;entryDy=0;entryPerimeter=0;" parent="1" source="Ks3u7ii3O0ToyFJfyuOW-6" target="Ks3u7ii3O0ToyFJfyuOW-2" edge="1">
          <mxGeometry relative="1" as="geometry">
            <mxPoint x="350" y="160" as="targetPoint" />
          </mxGeometry>
        </mxCell>
        <mxCell id="Ks3u7ii3O0ToyFJfyuOW-10" style="edgeStyle=orthogonalEdgeStyle;rounded=1;orthogonalLoop=1;jettySize=auto;html=1;exitX=1;exitY=0.5;exitDx=0;exitDy=0;exitPerimeter=0;entryX=0;entryY=0.5;entryDx=0;entryDy=0;entryPerimeter=0;curved=0;" parent="1" source="Ks3u7ii3O0ToyFJfyuOW-7" target="Ks3u7ii3O0ToyFJfyuOW-3" edge="1">
          <mxGeometry relative="1" as="geometry">
            <Array as="points">
              <mxPoint x="360" y="200" />
              <mxPoint x="360" y="280" />
            </Array>
          </mxGeometry>
        </mxCell>
      </root>
    </mxGraphModel>
  </diagram>
  <diagram name="Uninternalize" id="yR5oZ1h_S7ZLmSGezaBp">
    <mxGraphModel dx="920" dy="486" grid="1" gridSize="10" guides="1" tooltips="1" connect="1" arrows="1" fold="1" page="1" pageScale="1" pageWidth="1100" pageHeight="850" math="0" shadow="0">
      <root>
        <mxCell id="c91dSZDJYJj_W9c63cXH-0" />
        <mxCell id="c91dSZDJYJj_W9c63cXH-1" parent="c91dSZDJYJj_W9c63cXH-0" />
        <mxCell id="c91dSZDJYJj_W9c63cXH-2" value="" style="rhombus;whiteSpace=wrap;html=1;rounded=1;fontStyle=1;glass=0;sketch=0;fontSize=12;points=[[0,0.5,0,0,0],[0.5,0,0,0,0],[0.5,1,0,0,0],[1,0.5,0,0,0]];shadow=1;fontFamily=Helvetica;fontColor=default;" vertex="1" parent="c91dSZDJYJj_W9c63cXH-1">
          <mxGeometry x="20" y="140" width="40" height="40" as="geometry" />
        </mxCell>
        <mxCell id="c91dSZDJYJj_W9c63cXH-3" value="" style="rhombus;whiteSpace=wrap;html=1;rounded=1;fontStyle=1;glass=0;sketch=0;fontSize=12;points=[[0,0.5,0,0,0],[0.5,0,0,0,0],[0.5,1,0,0,0],[1,0.5,0,0,0]];shadow=1;fillColor=#0050ef;fontColor=#ffffff;strokeColor=#001DBC;fontFamily=Helvetica;" vertex="1" parent="c91dSZDJYJj_W9c63cXH-1">
          <mxGeometry x="360" y="140" width="40" height="40" as="geometry" />
        </mxCell>
        <mxCell id="c91dSZDJYJj_W9c63cXH-4" value="✗" style="rhombus;whiteSpace=wrap;html=1;rounded=1;fillColor=#0050ef;fontColor=#ffffff;strokeColor=#001DBC;fontStyle=1;glass=0;sketch=0;fontSize=12;points=[[0,0.5,0,0,0],[0.5,0,0,0,0],[0.5,1,0,0,0],[1,0.5,0,0,0]];shadow=1;textOpacity=30;" vertex="1" parent="c91dSZDJYJj_W9c63cXH-1">
          <mxGeometry x="360" y="260" width="40" height="40" as="geometry" />
        </mxCell>
        <mxCell id="c91dSZDJYJj_W9c63cXH-5" value="$ node unencode.mjs" style="rounded=1;whiteSpace=wrap;html=1;sketch=0;container=1;recursiveResize=0;verticalAlign=top;arcSize=6;fontStyle=1;autosize=0;points=[];absoluteArcSize=1;shadow=1;strokeColor=#001DBC;fillColor=#0050ef;fontColor=#ffffff;fontFamily=Helvetica;fontSize=11;" vertex="1" parent="c91dSZDJYJj_W9c63cXH-1">
          <mxGeometry x="130" y="120" width="130" height="110" as="geometry">
            <mxRectangle x="-98" y="-1230" width="99" height="26" as="alternateBounds" />
          </mxGeometry>
        </mxCell>
        <mxCell id="c91dSZDJYJj_W9c63cXH-6" value="" style="rounded=1;whiteSpace=wrap;html=1;sketch=0;points=[[0,0.5,0,0,0],[1,0.5,0,0,0]];arcSize=50;fontFamily=Helvetica;fontSize=11;fontColor=default;" vertex="1" parent="c91dSZDJYJj_W9c63cXH-5">
          <mxGeometry x="-10" y="27.5" width="39.25" height="25" as="geometry" />
        </mxCell>
        <mxCell id="c91dSZDJYJj_W9c63cXH-7" value="" style="rounded=1;whiteSpace=wrap;html=1;sketch=0;points=[[0,0.5,0,0,0],[1,0.5,0,0,0]];fillColor=#1ba1e2;fontColor=#ffffff;strokeColor=#006EAF;arcSize=50;fontFamily=Helvetica;fontSize=11;" vertex="1" parent="c91dSZDJYJj_W9c63cXH-5">
          <mxGeometry x="110" y="27.5" width="35.25" height="25" as="geometry" />
        </mxCell>
        <mxCell id="c91dSZDJYJj_W9c63cXH-8" value="✗" style="rounded=1;whiteSpace=wrap;html=1;sketch=0;points=[[0,0.5,0,0,0],[1,0.5,0,0,0]];fillColor=#1ba1e2;fontColor=#ffffff;strokeColor=#006EAF;arcSize=50;fontFamily=Helvetica;fontSize=11;textOpacity=30;" vertex="1" parent="c91dSZDJYJj_W9c63cXH-5">
          <mxGeometry x="110" y="67.5" width="35.25" height="25" as="geometry" />
        </mxCell>
        <mxCell id="c91dSZDJYJj_W9c63cXH-9" style="edgeStyle=orthogonalEdgeStyle;rounded=0;orthogonalLoop=1;jettySize=auto;html=1;exitX=1;exitY=0.5;exitDx=0;exitDy=0;exitPerimeter=0;entryX=0;entryY=0.5;entryDx=0;entryDy=0;entryPerimeter=0;strokeWidth=2;" edge="1" parent="c91dSZDJYJj_W9c63cXH-1" source="c91dSZDJYJj_W9c63cXH-2" target="c91dSZDJYJj_W9c63cXH-6">
          <mxGeometry relative="1" as="geometry" />
        </mxCell>
        <mxCell id="c91dSZDJYJj_W9c63cXH-10" style="edgeStyle=orthogonalEdgeStyle;rounded=0;orthogonalLoop=1;jettySize=auto;html=1;exitX=1;exitY=0.5;exitDx=0;exitDy=0;exitPerimeter=0;strokeWidth=2;entryX=0;entryY=0.5;entryDx=0;entryDy=0;entryPerimeter=0;" edge="1" parent="c91dSZDJYJj_W9c63cXH-1" source="c91dSZDJYJj_W9c63cXH-7" target="c91dSZDJYJj_W9c63cXH-3">
          <mxGeometry relative="1" as="geometry">
            <mxPoint x="350" y="160" as="targetPoint" />
          </mxGeometry>
        </mxCell>
        <mxCell id="c91dSZDJYJj_W9c63cXH-11" style="edgeStyle=orthogonalEdgeStyle;rounded=1;orthogonalLoop=1;jettySize=auto;html=1;exitX=1;exitY=0.5;exitDx=0;exitDy=0;exitPerimeter=0;entryX=0;entryY=0.5;entryDx=0;entryDy=0;entryPerimeter=0;curved=0;" edge="1" parent="c91dSZDJYJj_W9c63cXH-1" source="c91dSZDJYJj_W9c63cXH-8" target="c91dSZDJYJj_W9c63cXH-4">
          <mxGeometry relative="1" as="geometry">
            <Array as="points">
              <mxPoint x="300" y="200" />
              <mxPoint x="300" y="280" />
            </Array>
          </mxGeometry>
        </mxCell>
      </root>
    </mxGraphModel>
  </diagram>
  <diagram id="DWxpu4sDnWmoSE2PDSY-" name="Decode For Python">
    <mxGraphModel dx="920" dy="486" grid="1" gridSize="10" guides="1" tooltips="1" connect="1" arrows="1" fold="1" page="1" pageScale="1" pageWidth="1100" pageHeight="850" math="0" shadow="0">
      <root>
        <mxCell id="0" />
        <mxCell id="1" parent="0" />
        <mxCell id="d5O_rO45kLhP89n0BcdW-1" value="" style="rhombus;whiteSpace=wrap;html=1;rounded=1;fontStyle=1;glass=0;sketch=0;fontSize=12;points=[[0,0.5,0,0,0],[0.5,0,0,0,0],[0.5,1,0,0,0],[1,0.5,0,0,0]];shadow=1;fontFamily=Helvetica;fontColor=default;" vertex="1" parent="1">
          <mxGeometry x="20" y="140" width="40" height="40" as="geometry" />
        </mxCell>
        <mxCell id="d5O_rO45kLhP89n0BcdW-2" value="" style="rhombus;whiteSpace=wrap;html=1;rounded=1;fontStyle=1;glass=0;sketch=0;fontSize=12;points=[[0,0.5,0,0,0],[0.5,0,0,0,0],[0.5,1,0,0,0],[1,0.5,0,0,0]];shadow=1;fillColor=#0050ef;fontColor=#ffffff;strokeColor=#001DBC;fontFamily=Helvetica;" vertex="1" parent="1">
          <mxGeometry x="440" y="140" width="40" height="40" as="geometry" />
        </mxCell>
        <mxCell id="d5O_rO45kLhP89n0BcdW-3" value="✗" style="rhombus;whiteSpace=wrap;html=1;rounded=1;fillColor=#0050ef;fontColor=#ffffff;strokeColor=#001DBC;fontStyle=1;glass=0;sketch=0;fontSize=12;points=[[0,0.5,0,0,0],[0.5,0,0,0,0],[0.5,1,0,0,0],[1,0.5,0,0,0]];shadow=1;textOpacity=30;" vertex="1" parent="1">
          <mxGeometry x="440" y="260" width="40" height="40" as="geometry" />
        </mxCell>
        <mxCell id="d5O_rO45kLhP89n0BcdW-4" value="$ node t2t.mjs pydecode.ohm pydecode.rewrite -" style="rounded=1;whiteSpace=wrap;html=1;sketch=0;container=1;recursiveResize=0;verticalAlign=top;arcSize=6;fontStyle=1;autosize=0;points=[];absoluteArcSize=1;shadow=1;strokeColor=#001DBC;fillColor=#0050ef;fontColor=#ffffff;fontFamily=Helvetica;fontSize=11;" vertex="1" parent="1">
          <mxGeometry x="130" y="120" width="190" height="110" as="geometry">
            <mxRectangle x="-98" y="-1230" width="99" height="26" as="alternateBounds" />
          </mxGeometry>
        </mxCell>
        <mxCell id="d5O_rO45kLhP89n0BcdW-5" value="" style="rounded=1;whiteSpace=wrap;html=1;sketch=0;points=[[0,0.5,0,0,0],[1,0.5,0,0,0]];arcSize=50;fontFamily=Helvetica;fontSize=11;fontColor=default;" vertex="1" parent="d5O_rO45kLhP89n0BcdW-4">
          <mxGeometry x="-10" y="27.5" width="39.25" height="25" as="geometry" />
        </mxCell>
        <mxCell id="d5O_rO45kLhP89n0BcdW-6" value="" style="rounded=1;whiteSpace=wrap;html=1;sketch=0;points=[[0,0.5,0,0,0],[1,0.5,0,0,0]];fillColor=#1ba1e2;fontColor=#ffffff;strokeColor=#006EAF;arcSize=50;fontFamily=Helvetica;fontSize=11;" vertex="1" parent="d5O_rO45kLhP89n0BcdW-4">
          <mxGeometry x="170" y="27.5" width="35.25" height="25" as="geometry" />
        </mxCell>
        <mxCell id="d5O_rO45kLhP89n0BcdW-7" value="✗" style="rounded=1;whiteSpace=wrap;html=1;sketch=0;points=[[0,0.5,0,0,0],[1,0.5,0,0,0]];fillColor=#1ba1e2;fontColor=#ffffff;strokeColor=#006EAF;arcSize=50;fontFamily=Helvetica;fontSize=11;textOpacity=30;" vertex="1" parent="d5O_rO45kLhP89n0BcdW-4">
          <mxGeometry x="170" y="67.5" width="35.25" height="25" as="geometry" />
        </mxCell>
        <mxCell id="d5O_rO45kLhP89n0BcdW-8" style="edgeStyle=orthogonalEdgeStyle;rounded=0;orthogonalLoop=1;jettySize=auto;html=1;exitX=1;exitY=0.5;exitDx=0;exitDy=0;exitPerimeter=0;entryX=0;entryY=0.5;entryDx=0;entryDy=0;entryPerimeter=0;strokeWidth=2;" edge="1" parent="1" source="d5O_rO45kLhP89n0BcdW-1" target="d5O_rO45kLhP89n0BcdW-5">
          <mxGeometry relative="1" as="geometry" />
        </mxCell>
        <mxCell id="d5O_rO45kLhP89n0BcdW-9" style="edgeStyle=orthogonalEdgeStyle;rounded=0;orthogonalLoop=1;jettySize=auto;html=1;exitX=1;exitY=0.5;exitDx=0;exitDy=0;exitPerimeter=0;strokeWidth=2;entryX=0;entryY=0.5;entryDx=0;entryDy=0;entryPerimeter=0;" edge="1" parent="1" source="d5O_rO45kLhP89n0BcdW-6" target="d5O_rO45kLhP89n0BcdW-2">
          <mxGeometry relative="1" as="geometry">
            <mxPoint x="350" y="160" as="targetPoint" />
          </mxGeometry>
        </mxCell>
        <mxCell id="d5O_rO45kLhP89n0BcdW-10" style="edgeStyle=orthogonalEdgeStyle;rounded=1;orthogonalLoop=1;jettySize=auto;html=1;exitX=1;exitY=0.5;exitDx=0;exitDy=0;exitPerimeter=0;entryX=0;entryY=0.5;entryDx=0;entryDy=0;entryPerimeter=0;curved=0;" edge="1" parent="1" source="d5O_rO45kLhP89n0BcdW-7" target="d5O_rO45kLhP89n0BcdW-3">
          <mxGeometry relative="1" as="geometry">
            <Array as="points">
              <mxPoint x="360" y="200" />
              <mxPoint x="360" y="280" />
            </Array>
          </mxGeometry>
        </mxCell>
      </root>
    </mxGraphModel>
  </diagram>
</mxfile>
